<svg id="icon_notice" xmlns="http://www.w3.org/2000/svg" width="30" height="26" viewBox="0 0 30 26">
  <defs>
    <style>
      .cls-1 {
        fill: #fff;
      }
    </style>
  </defs>
  <path id="路径_250" data-name="路径 250" class="cls-1" d="M16.02,0a1.393,1.393,0,0,0-.859.3L7.488,6.514,1.366,6.5h0a1.342,1.342,0,0,0-.936.374,1.286,1.286,0,0,0-.4.911L0,18.183a1.332,1.332,0,0,0,.384.926,1.365,1.365,0,0,0,.951.388H7.519l7.642,6.2a1.371,1.371,0,0,0,1.427.179,1.281,1.281,0,0,0,.767-1.18V1.3A1.319,1.319,0,0,0,16.02,0Zm-.767,23.114L8.87,17.929l-.583-.478h-6.2l.031-8.92,5.355.015H8.24l.583-.478,6.43-5.214Z"/>
  <path id="路径_251" data-name="路径 251" class="cls-1" d="M129.072,57.465a1.11,1.11,0,0,1-1-.6,1.025,1.025,0,0,1-.061-.822,1.121,1.121,0,0,1,.552-.628c.092-.045,2.056-1.106,2.056-4.333a4.469,4.469,0,0,0-2.21-4.139,1.078,1.078,0,0,1-.506-1.434,1.106,1.106,0,0,1,1-.613.989.989,0,0,1,.46.1,6.575,6.575,0,0,1,3.468,6.081,6.781,6.781,0,0,1-3.284,6.26,1.018,1.018,0,0,1-.476.12Z" transform="translate(-108.187 -38.191)"/>
  <path id="路径_252" data-name="路径 252" class="cls-1" d="M155.233,39.25a1.11,1.11,0,0,1-.921-.478,1.073,1.073,0,0,1-.169-.807,1.1,1.1,0,0,1,.476-.687c.153-.1,3.514-2.406,3.514-8.2,0-5.767-3.514-8.1-3.668-8.188a1.079,1.079,0,0,1,.6-1.987,1.2,1.2,0,0,1,.6.164c.184.12,4.68,2.988,4.68,10s-4.312,9.876-4.5,10A1.144,1.144,0,0,1,155.233,39.25Z" transform="translate(-130.343 -16.076)"/>
</svg>
